<?xml version="1.0" standalone="no"?>
<!DOCTYPE svg PUBLIC "-//W3C//DTD SVG 20010904//EN"
 "http://www.w3.org/TR/2001/REC-SVG-20010904/DTD/svg10.dtd">
<svg version="1.0" xmlns="http://www.w3.org/2000/svg"
 width="360.000000pt" height="360.000000pt" viewBox="0 0 360.000000 360.000000"
 preserveAspectRatio="xMidYMid meet">
<metadata>
Created by potrace 1.16, written by Peter Selinger 2001-2019
</metadata>
<g transform="translate(0.000000,360.000000) scale(0.100000,-0.100000)"
fill="#000000" stroke="none">
<path d="M0 1800 l0 -1800 1800 0 1800 0 0 1800 0 1800 -1800 0 -1800 0 0
-1800z m1164 678 c8 -29 27 -97 42 -150 l28 -98 728 0 729 0 24 -25 c18 -17
25 -35 25 -62 0 -21 -24 -161 -54 -312 l-53 -275 -37 -33 -36 -33 -619 0
c-550 0 -621 -2 -635 -16 -22 -22 -20 -57 5 -80 20 -18 47 -19 580 -22 l559
-2 0 -30 c0 -27 -3 -30 -31 -30 -26 0 -30 -3 -23 -17 4 -10 9 -40 11 -68 12
-159 -206 -217 -280 -75 -18 35 -19 102 -2 143 7 16 -8 17 -220 17 -213 0
-227 -1 -219 -17 4 -10 9 -40 11 -68 11 -154 -195 -216 -278 -83 -20 33 -23
110 -5 149 6 14 -2 17 -49 21 -34 3 -66 12 -83 25 -39 28 -72 81 -72 114 0 35
39 82 82 99 18 8 35 15 37 17 3 2 -54 201 -125 443 l-129 440 -97 0 c-88 0
-98 2 -112 22 -11 15 -12 26 -5 40 9 16 24 18 149 18 l139 0 15 -52z"/>
<path d="M1271 2151 c-13 -8 -12 -17 25 -143 5 -16 20 -18 140 -18 78 0 134 4
134 10 0 8 -12 73 -26 138 -4 21 -8 22 -132 22 -70 0 -133 -4 -141 -9z"/>
<path d="M1650 2144 c0 -8 5 -46 11 -85 l12 -69 124 0 124 0 -6 73 c-4 39 -8
78 -10 85 -3 9 -38 12 -130 12 -106 0 -125 -2 -125 -16z"/>
<path d="M2016 2152 c-3 -4 -2 -43 1 -85 l6 -77 123 0 124 0 0 85 0 85 -124 0
c-69 0 -127 -4 -130 -8z"/>
<path d="M2376 2123 c-3 -21 -6 -59 -6 -85 l0 -48 134 0 134 0 11 50 c15 72
14 107 -5 114 -9 3 -71 6 -139 6 l-122 0 -7 -37z"/>
<path d="M1334 1878 c4 -13 12 -44 18 -70 6 -27 16 -48 22 -49 31 -2 231 3
235 6 2 2 -2 34 -9 70 l-12 65 -130 0 -130 0 6 -22z"/>
<path d="M1695 1838 c4 -35 10 -67 15 -71 4 -5 55 -9 114 -10 l107 -2 -3 70
-3 70 -119 3 -118 3 7 -63z"/>
<path d="M2020 1868 c0 -18 3 -50 6 -70 l7 -38 113 0 114 0 0 70 0 70 -120 0
-120 0 0 -32z"/>
<path d="M2356 1869 c-3 -17 -6 -49 -6 -70 l0 -39 125 0 c141 0 123 -11 143
93 l10 47 -133 0 -132 0 -7 -31z"/>
<path d="M1394 1663 c2 -10 10 -37 17 -60 l12 -43 115 0 c113 0 114 0 109 23
-3 12 -9 39 -12 60 l-7 37 -120 0 c-109 0 -119 -2 -114 -17z"/>
<path d="M1725 1628 c4 -29 9 -56 12 -60 2 -5 52 -8 110 -8 l106 0 -7 31 c-3
17 -6 44 -6 60 l0 29 -111 0 -111 0 7 -52z"/>
<path d="M2030 1620 l0 -60 110 0 110 0 0 60 0 60 -110 0 -110 0 0 -60z"/>
<path d="M2340 1651 c0 -16 -3 -43 -6 -60 l-6 -31 116 0 c130 0 126 -3 139 83
l6 37 -125 0 -124 0 0 -29z"/>
<path d="M1500 1270 c-24 -24 -26 -67 -4 -98 20 -29 76 -30 104 -2 43 43 11
120 -50 120 -17 0 -39 -9 -50 -20z"/>
<path d="M2210 1270 c-45 -45 -11 -120 53 -120 20 0 41 8 50 18 23 25 22 85
-1 105 -25 23 -78 21 -102 -3z"/>
</g>
</svg>
